<?xml version="1.0" encoding="UTF-8" standalone="no"?>
<!-- Created with Inkscape (http://www.inkscape.org/) -->

<svg
   xmlns:dc="http://purl.org/dc/elements/1.1/"
   xmlns:cc="http://creativecommons.org/ns#"
   xmlns:rdf="http://www.w3.org/1999/02/22-rdf-syntax-ns#"
   xmlns:svg="http://www.w3.org/2000/svg"
   xmlns="http://www.w3.org/2000/svg"
   xmlns:sodipodi="http://sodipodi.sourceforge.net/DTD/sodipodi-0.dtd"
   xmlns:inkscape="http://www.inkscape.org/namespaces/inkscape"
   width="600"
   height="400"
   viewBox="0 0 600.00001 400.00001"
   id="svg2"
   version="1.1"
   inkscape:version="0.91 r"
   sodipodi:docname="MOHATWORK_convert.svg">
  <defs
     id="defs4" />
  <sodipodi:namedview
     id="base"
     pagecolor="#ffffff"
     bordercolor="#666666"
     borderopacity="1.0"
     inkscape:pageopacity="0.0"
     inkscape:pageshadow="2"
     inkscape:zoom="1"
     inkscape:cx="247.25288"
     inkscape:cy="216.19583"
     inkscape:document-units="px"
     inkscape:current-layer="layer1"
     showgrid="false"
     units="px"
     showguides="true"
     inkscape:guide-bbox="true"
     inkscape:snap-bbox="true"
     inkscape:bbox-nodes="true"
     inkscape:snap-center="true"
     inkscape:bbox-paths="true"
     inkscape:window-width="1366"
     inkscape:window-height="713"
     inkscape:window-x="0"
     inkscape:window-y="30"
     inkscape:window-maximized="1"
     showborder="false" />
  <metadata
     id="metadata7">
    <rdf:RDF>
      <cc:Work
         rdf:about="">
        <dc:format>image/svg+xml</dc:format>
        <dc:type
           rdf:resource="http://purl.org/dc/dcmitype/StillImage" />
        <dc:title></dc:title>
      </cc:Work>
    </rdf:RDF>
  </metadata>
  <g
     inkscape:label="Layer 1"
     inkscape:groupmode="layer"
     id="layer1"
     transform="translate(0,-652.36214)">
    <g
       id="g4915"
       transform="matrix(1,0,0,-1,-147.68616,1877.7637)"
       style="fill:#000080" />
    <g
       id="g4922"
       transform="translate(-142,-103)">
      <rect
         y="763.99744"
         x="152.23936"
         height="89.587555"
         width="29.862516"
         id="rect5524"
         style="opacity:1;fill:#6dcfff;fill-opacity:1;stroke:none;stroke-width:2;stroke-linejoin:miter;stroke-miterlimit:4;stroke-dasharray:none;stroke-opacity:0.94117647" />
      <rect
         y="668.96722"
         x="-441.35144"
         height="59.725033"
         width="29.862516"
         id="rect4861"
         style="opacity:1;fill:#6dcfff;fill-opacity:1;stroke:none;stroke-width:2;stroke-linejoin:miter;stroke-miterlimit:4;stroke-dasharray:none;stroke-opacity:0.94117647"
         inkscape:transform-center-x="-31.674005"
         inkscape:transform-center-y="10.558001"
         transform="matrix(0.70710678,-0.70710678,0.70710678,0.70710678,0,0)" />
      <rect
         transform="matrix(-0.70710678,-0.70710678,-0.70710678,0.70710678,0,0)"
         inkscape:transform-center-y="10.558033"
         inkscape:transform-center-x="31.673995"
         style="opacity:1;fill:#046c9e;fill-opacity:1;stroke:none;stroke-width:2;stroke-linejoin:miter;stroke-miterlimit:4;stroke-dasharray:none;stroke-opacity:0.94117647"
         id="rect4865"
         width="29.862516"
         height="59.725033"
         x="-728.7182"
         y="381.60052" />
      <path
         inkscape:connector-curvature="0"
         id="rect4867"
         d="m 224.29599,763.99741 0,89.58789 8.74805,0 21.11523,-21.11524 0,-68.47265 -29.86328,0 z"
         style="opacity:1;fill:#6dcfff;fill-opacity:1;stroke:none;stroke-width:2;stroke-linejoin:miter;stroke-miterlimit:4;stroke-dasharray:none;stroke-opacity:0.94117647" />
      <g
         id="text5508"
         style="font-style:normal;font-weight:normal;font-size:52.21489334px;line-height:125%;font-family:sans-serif;letter-spacing:0px;word-spacing:0px;fill:#6dcfff;fill-opacity:1;stroke:#6dcfff;stroke-width:3.91611671;stroke-linecap:butt;stroke-linejoin:miter;stroke-miterlimit:4;stroke-dasharray:none;stroke-opacity:1">
        <path
           id="path4832"
           style="letter-spacing:4px;fill:#6dcfff;fill-opacity:1;stroke:#6dcfff;stroke-width:3.91611671;stroke-opacity:1"
           d="m 305.4808,803.97955 -5.04812,0 0,-32.71079 -10.55516,22.25762 -3.00847,0 -10.47868,-22.25762 0,32.71079 -4.71667,0 0,-37.96288 6.8838,0 10.12173,21.13582 9.79029,-21.13582 7.01128,0 0,37.96288 z"
           inkscape:connector-curvature="0" />
        <path
           id="path4834"
           style="letter-spacing:4px;fill:#6dcfff;fill-opacity:1;stroke:#6dcfff;stroke-width:3.91611671;stroke-opacity:1"
           d="m 348.03008,770.37641 q 2.32009,2.54956 3.54388,6.24641 1.24928,3.69686 1.24928,8.38804 0,4.69118 -1.27478,8.41353 -1.24928,3.69686 -3.51838,6.16993 -2.34559,2.57505 -5.55803,3.87532 -3.18695,1.30028 -7.29173,1.30028 -4.0028,0 -7.29173,-1.32577 -3.26343,-1.32577 -5.55803,-3.84983 -2.2946,-2.52406 -3.54388,-6.19542 -1.22379,-3.67136 -1.22379,-8.38804 0,-4.64019 1.22379,-8.31155 1.22378,-3.69685 3.56937,-6.3229 2.24361,-2.49856 5.55803,-3.82433 3.33992,-1.32577 7.26624,-1.32577 4.07929,0 7.31722,1.35127 3.26343,1.32577 5.53254,3.79883 z m -0.45892,14.63445 q 0,-7.39371 -3.31443,-11.39651 -3.31442,-4.0283 -9.05092,-4.0283 -5.78749,0 -9.10191,4.0283 -3.28893,4.0028 -3.28893,11.39651 0,7.4702 3.36542,11.4475 3.36541,3.95182 9.02542,3.95182 5.66002,0 8.99993,-3.95182 3.36542,-3.9773 3.36542,-11.4475 z"
           inkscape:connector-curvature="0" />
        <path
           id="path4836"
           style="letter-spacing:4px;fill:#6dcfff;fill-opacity:1;stroke:#6dcfff;stroke-width:3.91611671;stroke-opacity:1"
           d="m 393.86828,803.97955 -5.04812,0 0,-18.58626 -18.94319,0 0,18.58626 -5.04812,0 0,-37.96288 5.04812,0 0,14.88941 18.94319,0 0,-14.88941 5.04812,0 0,37.96288 z"
           inkscape:connector-curvature="0" />
        <path
           id="path4838"
           style="letter-spacing:4px;fill:#6dcfff;fill-opacity:1;stroke:#6dcfff;stroke-width:3.91611671;stroke-opacity:1"
           d="m 438.02378,803.97955 -5.37956,0 -3.72235,-10.58065 -16.41914,0 -3.72235,10.58065 -5.12461,0 13.81859,-37.96288 6.73083,0 13.81859,37.96288 z m -10.65714,-14.9149 -6.65434,-18.63725 -6.67984,18.63725 13.33418,0 z"
           inkscape:connector-curvature="0" />
        <path
           id="path4840"
           style="letter-spacing:4px;fill:#6dcfff;fill-opacity:1;stroke:#6dcfff;stroke-width:3.91611671;stroke-opacity:1"
           d="m 471.80259,770.50389 -13.56364,0 0,33.47566 -5.04812,0 0,-33.47566 -13.56363,0 0,-4.48722 32.17539,0 0,4.48722 z"
           inkscape:connector-curvature="0" />
      </g>
      <g
         id="text5520"
         style="font-style:normal;font-weight:normal;font-size:52.21489334px;line-height:125%;font-family:sans-serif;letter-spacing:0px;word-spacing:0px;fill:#303030;fill-opacity:1;stroke:#303030;stroke-width:1;stroke-linecap:butt;stroke-linejoin:miter;stroke-miterlimit:4;stroke-dasharray:none;stroke-opacity:1">
        <path
           id="path4843"
           style="letter-spacing:0px;fill:#303030;fill-opacity:1;stroke:#303030;stroke-width:1;stroke-miterlimit:4;stroke-dasharray:none;stroke-opacity:1"
           d="m 320.9,812.87373 -9.86678,37.96288 -5.68551,0 -7.98011,-31.51251 -7.80163,31.51251 -5.55804,0 -10.04524,-37.96288 5.17559,0 7.98011,31.56349 7.85263,-31.56349 5.12461,0 7.92912,31.86944 7.92911,-31.86944 4.94614,0 z"
           inkscape:connector-curvature="0" />
        <path
           id="path4845"
           style="letter-spacing:0px;fill:#303030;fill-opacity:1;stroke:#303030;stroke-width:1;stroke-miterlimit:4;stroke-dasharray:none;stroke-opacity:1"
           d="m 356.61927,817.23347 q 2.3201,2.54955 3.54388,6.24641 1.24929,3.69686 1.24929,8.38804 0,4.69118 -1.27478,8.41353 -1.24928,3.69686 -3.51839,6.16992 -2.34559,2.57505 -5.55803,3.87533 -3.18694,1.30027 -7.29173,1.30027 -4.0028,0 -7.29173,-1.32577 -3.26343,-1.32577 -5.55803,-3.84983 -2.2946,-2.52406 -3.54388,-6.19542 -1.22378,-3.67136 -1.22378,-8.38803 0,-4.64019 1.22378,-8.31155 1.22379,-3.69686 3.56938,-6.3229 2.24361,-2.49856 5.55803,-3.82433 3.33992,-1.32577 7.26623,-1.32577 4.07929,0 7.31723,1.35126 3.26343,1.32577 5.53253,3.79884 z m -0.45892,14.63445 q 0,-7.39371 -3.31442,-11.39652 -3.31442,-4.02829 -9.05092,-4.02829 -5.78749,0 -9.10191,4.02829 -3.28893,4.00281 -3.28893,11.39652 0,7.47019 3.36541,11.4475 3.36542,3.95181 9.02543,3.95181 5.66001,0 8.99993,-3.95181 3.36541,-3.97731 3.36541,-11.4475 z"
           inkscape:connector-curvature="0" />
        <path
           id="path4847"
           style="letter-spacing:0px;fill:#303030;fill-opacity:1;stroke:#303030;stroke-width:1;stroke-miterlimit:4;stroke-dasharray:none;stroke-opacity:1"
           d="m 400.82856,850.83661 -6.55236,0 -12.69679,-15.09337 -7.11326,0 0,15.09337 -5.04812,0 0,-37.96288 10.63165,0 q 3.4419,0 5.7365,0.45892 2.2946,0.43342 4.13028,1.58072 2.06514,1.30028 3.21244,3.28893 1.17279,1.96316 1.17279,4.99713 0,4.10478 -2.06514,6.8838 -2.06513,2.75352 -5.6855,4.15577 l 14.27751,16.59761 z m -11.80444,-27.28024 q 0,-1.63172 -0.5864,-2.881 -0.5609,-1.27478 -1.88667,-2.14163 -1.09631,-0.73937 -2.60055,-1.01982 -1.50424,-0.30595 -3.54388,-0.30595 l -5.94047,0 0,14.3285 5.09911,0 q 2.39659,0 4.18128,-0.40792 1.78468,-0.43343 3.03397,-1.58073 1.1473,-1.07081 1.6827,-2.44757 0.56091,-1.40226 0.56091,-3.54388 z"
           inkscape:connector-curvature="0" />
        <path
           id="path4849"
           style="letter-spacing:0px;fill:#303030;fill-opacity:1;stroke:#303030;stroke-width:1;stroke-miterlimit:4;stroke-dasharray:none;stroke-opacity:1"
           d="m 436.24189,850.83661 -6.55236,0 -15.01688,-16.90355 -3.77334,4.02829 0,12.87526 -5.04812,0 0,-37.96288 5.04812,0 0,19.81004 18.43329,-19.81004 6.11893,0 -16.95454,17.84689 17.7449,20.11599 z"
           inkscape:connector-curvature="0" />
        <path
           id="path4851"
           style="letter-spacing:0px;fill:#303030;fill-opacity:1;stroke:#303030;stroke-width:1;stroke-miterlimit:4;stroke-dasharray:none;stroke-opacity:1"
           d="m 469.51358,840.001 q 0,2.21811 -1.04532,4.38523 -1.01982,2.16713 -2.881,3.67136 -2.03964,1.63172 -4.76767,2.54956 -2.70253,0.91784 -6.52686,0.91784 -4.10478,0 -7.39371,-0.76487 -3.26343,-0.76486 -6.65434,-2.2691 l 0,-6.3229 0.35694,0 q 2.881,2.39658 6.65434,3.69686 3.77334,1.30027 7.08776,1.30027 4.69118,0 7.29173,-1.75919 2.62604,-1.7592 2.62604,-4.69119 0,-2.52406 -1.24928,-3.72235 -1.22379,-1.19829 -3.74785,-1.86117 -1.91216,-0.50991 -4.15577,-0.84136 -2.21811,-0.33144 -4.71668,-0.84135 -5.04812,-1.07081 -7.49569,-3.64586 -2.42208,-2.60055 -2.42208,-6.75632 0,-4.76767 4.0283,-7.80164 4.0283,-3.05947 10.22372,-3.05947 4.0028,0 7.34272,0.76487 3.33991,0.76486 5.91496,1.88667 l 0,5.96596 -0.35693,0 q -2.16713,-1.83568 -5.71101,-3.03397 -3.51838,-1.22379 -7.21524,-1.22379 -4.05379,0 -6.52686,1.68271 -2.44757,1.6827 -2.44757,4.33424 0,2.37109 1.22378,3.72235 1.22379,1.35127 4.30875,2.06514 1.63172,0.35694 4.64019,0.86685 3.00848,0.50991 5.09911,1.04532 4.23226,1.1218 6.37389,3.39091 2.14163,2.2691 2.14163,6.34839 z"
           inkscape:connector-curvature="0" />
      </g>
      <path
         inkscape:connector-curvature="0"
         id="path5529"
         d="m 233.04404,853.5853 21.11523,-21.11524 -21.11523,0 0,21.11524 z"
         style="opacity:1;fill:#046c9e;fill-opacity:1;stroke:none;stroke-width:2;stroke-linejoin:miter;stroke-miterlimit:4;stroke-dasharray:none;stroke-opacity:0.94117647" />
    </g>
    <g
       id="g4941">
      <g
         id="text5539"
         style="font-style:normal;font-weight:normal;font-size:52.21489334px;line-height:125%;font-family:sans-serif;letter-spacing:0px;word-spacing:0px;fill:#6dcfff;fill-opacity:1;stroke:#6dcfff;stroke-width:3.91611671;stroke-linecap:butt;stroke-linejoin:miter;stroke-miterlimit:4;stroke-dasharray:none;stroke-opacity:1">
        <path
           id="path4864"
           style="letter-spacing:-2.5px;fill:#6dcfff;fill-opacity:1;stroke:#6dcfff;stroke-width:3.91611671;stroke-opacity:1"
           d="m 184.82409,968.22308 -5.04812,0 0,-32.71079 -10.55516,22.25762 -3.00847,0 -10.47867,-22.25762 0,32.71079 -4.71668,0 0,-37.96288 6.8838,0 10.12173,21.13582 9.79029,-21.13582 7.01128,0 0,37.96288 z" />
        <path
           id="path4866"
           style="letter-spacing:-2.5px;fill:#6dcfff;fill-opacity:1;stroke:#6dcfff;stroke-width:3.91611671;stroke-opacity:1"
           d="m 220.87337,934.61994 q 2.32009,2.54956 3.54388,6.24641 1.24928,3.69686 1.24928,8.38804 0,4.69118 -1.27478,8.41353 -1.24928,3.69686 -3.51838,6.16993 -2.34559,2.57505 -5.55803,3.87532 -3.18695,1.30028 -7.29173,1.30028 -4.0028,0 -7.29173,-1.32577 -3.26343,-1.32577 -5.55803,-3.84983 -2.2946,-2.52406 -3.54388,-6.19542 -1.22379,-3.67136 -1.22379,-8.38804 0,-4.64019 1.22379,-8.31155 1.22379,-3.69685 3.56938,-6.3229 2.2436,-2.49856 5.55803,-3.82433 3.33991,-1.32577 7.26623,-1.32577 4.07929,0 7.31722,1.35127 3.26343,1.32577 5.53254,3.79883 z m -0.45892,14.63445 q 0,-7.39371 -3.31442,-11.39651 -3.31443,-4.0283 -9.05092,-4.0283 -5.7875,0 -9.10192,4.0283 -3.28892,4.0028 -3.28892,11.39651 0,7.4702 3.36541,11.44751 3.36541,3.95181 9.02543,3.95181 5.66001,0 8.99993,-3.95181 3.36541,-3.97731 3.36541,-11.44751 z" />
        <path
           id="path4868"
           style="letter-spacing:-2.5px;fill:#6dcfff;fill-opacity:1;stroke:#6dcfff;stroke-width:3.91611671;stroke-opacity:1"
           d="m 260.21157,968.22308 -5.04812,0 0,-18.58625 -18.94319,0 0,18.58625 -5.04812,0 0,-37.96288 5.04812,0 0,14.88941 18.94319,0 0,-14.88941 5.04812,0 0,37.96288 z" />
        <path
           id="path4870"
           style="letter-spacing:-2.5px;fill:#6dcfff;fill-opacity:1;stroke:#6dcfff;stroke-width:3.91611671;stroke-opacity:1"
           d="m 297.86707,968.22308 -5.37956,0 -3.72235,-10.58065 -16.41914,0 -3.72235,10.58065 -5.1246,0 13.81859,-37.96288 6.73082,0 13.81859,37.96288 z m -10.65714,-14.9149 -6.65434,-18.63724 -6.67983,18.63724 13.33417,0 z" />
        <path
           id="path4872"
           style="letter-spacing:-2.5px;fill:#6dcfff;fill-opacity:1;stroke:#6dcfff;stroke-width:3.91611671;stroke-opacity:1"
           d="m 325.14588,934.74742 -13.56364,0 0,33.47566 -5.04812,0 0,-33.47566 -13.56363,0 0,-4.48722 32.17539,0 0,4.48722 z" />
      </g>
      <g
         id="text5543"
         style="font-style:normal;font-weight:normal;font-size:55.41278839px;line-height:125%;font-family:sans-serif;letter-spacing:0px;word-spacing:0px;fill:#303030;fill-opacity:1;stroke:#303030;stroke-width:1.06124485;stroke-linecap:butt;stroke-linejoin:miter;stroke-miterlimit:4;stroke-dasharray:none;stroke-opacity:1">
        <path
           id="path4875"
           style="letter-spacing:0px;fill:#303030;fill-opacity:1;stroke:#303030;stroke-width:1.06124485;stroke-miterlimit:4;stroke-dasharray:none;stroke-opacity:1"
           d="m 391.19656,929.31371 -10.47107,40.28791 -6.03372,0 -8.46885,-33.44248 -8.27945,33.44248 -5.89843,0 -10.66047,-40.28791 5.49258,0 8.46885,33.4966 8.33356,-33.4966 5.43846,0 8.41474,33.82128 8.41473,-33.82128 5.24907,0 z" />
        <path
           id="path4877"
           style="letter-spacing:0px;fill:#303030;fill-opacity:1;stroke:#303030;stroke-width:1.06124485;stroke-miterlimit:4;stroke-dasharray:none;stroke-opacity:1"
           d="m 429.10345,933.94046 q 2.46219,2.70571 3.76092,6.62898 1.3258,3.92326 1.3258,8.90176 0,4.97849 -1.35285,8.92881 -1.3258,3.92327 -3.73387,6.54781 -2.48925,2.73275 -5.89843,4.11266 -3.38213,1.37991 -7.73831,1.37991 -4.24796,0 -7.73831,-1.40696 -3.4633,-1.40697 -5.89843,-4.08561 -2.43514,-2.67865 -3.76093,-6.57486 -1.29874,-3.89621 -1.29874,-8.90176 0,-4.92438 1.29874,-8.82059 1.29874,-3.92327 3.78798,-6.71015 2.38102,-2.65158 5.89844,-4.05855 3.54447,-1.40697 7.71125,-1.40697 4.32912,0 7.76536,1.43403 3.4633,1.40696 5.87138,4.03149 z m -0.48703,15.53074 q 0,-7.84654 -3.51741,-12.09449 -3.51741,-4.27501 -9.60525,-4.27501 -6.14194,0 -9.65935,4.27501 -3.49036,4.24795 -3.49036,12.09449 0,7.9277 3.57153,12.1486 3.57152,4.19384 9.57818,4.19384 6.00666,0 9.55113,-4.19384 3.57153,-4.2209 3.57153,-12.1486 z" />
        <path
           id="path4879"
           style="letter-spacing:0px;fill:#303030;fill-opacity:1;stroke:#303030;stroke-width:1.06124485;stroke-miterlimit:4;stroke-dasharray:none;stroke-opacity:1"
           d="m 476.02033,969.60162 -6.95365,0 -13.4744,-16.01776 -7.54891,0 0,16.01776 -5.35729,0 0,-40.28791 11.28278,0 q 3.6527,0 6.08783,0.48703 2.43513,0.45997 4.38324,1.67753 2.19162,1.37991 3.40918,3.49036 1.24463,2.08339 1.24463,5.30318 0,4.35618 -2.19162,7.30539 -2.19162,2.92216 -6.03372,4.4103 l 15.15193,17.61412 z m -12.5274,-28.95101 q 0,-1.73165 -0.62231,-3.05745 -0.59525,-1.35285 -2.00222,-2.27279 -1.16345,-0.78465 -2.75982,-1.08228 -1.59636,-0.32468 -3.76092,-0.32468 l -6.30429,0 0,15.20605 5.4114,0 q 2.54337,0 4.43736,-0.43292 1.89399,-0.45997 3.21978,-1.67753 1.21757,-1.1364 1.78577,-2.59748 0.59525,-1.48813 0.59525,-3.76092 z" />
        <path
           id="path4881"
           style="letter-spacing:0px;fill:#303030;fill-opacity:1;stroke:#303030;stroke-width:1.06124485;stroke-miterlimit:4;stroke-dasharray:none;stroke-opacity:1"
           d="m 513.60254,969.60162 -6.95365,0 -15.93659,-17.9388 -4.00444,4.27501 0,13.66379 -5.35729,0 0,-40.28791 5.35729,0 0,21.02331 19.56223,-21.02331 6.49369,0 -17.99293,18.93992 18.83169,21.34799 z" />
        <path
           id="path4883"
           style="letter-spacing:0px;fill:#303030;fill-opacity:1;stroke:#303030;stroke-width:1.06124485;stroke-miterlimit:4;stroke-dasharray:none;stroke-opacity:1"
           d="m 548.91196,958.10239 q 0,2.35396 -1.10934,4.65381 -1.08228,2.29984 -3.05744,3.89621 -2.16456,1.73165 -5.05967,2.7057 -2.86804,0.97405 -6.92659,0.97405 -4.35619,0 -7.84654,-0.81171 -3.4633,-0.81171 -7.06189,-2.40807 l 0,-6.71015 0.3788,0 q 3.05745,2.54337 7.06189,3.92327 4.00444,1.37991 7.52185,1.37991 4.97849,0 7.73831,-1.86693 2.78687,-1.86694 2.78687,-4.9785 0,-2.67864 -1.32579,-3.95032 -1.29874,-1.27168 -3.97738,-1.97516 -2.02928,-0.54114 -4.4103,-0.89289 -2.35396,-0.35174 -5.00555,-0.89288 -5.35729,-1.13639 -7.95476,-3.86915 -2.57042,-2.75982 -2.57042,-7.17011 0,-5.05967 4.27501,-8.27945 4.27501,-3.24685 10.84987,-3.24685 4.24795,0 7.79242,0.81171 3.54447,0.81171 6.27723,2.00222 l 0,6.33135 -0.3788,0 q -2.29985,-1.94811 -6.06077,-3.21979 -3.73387,-1.29874 -7.65714,-1.29874 -4.30207,0 -6.9266,1.78577 -2.59747,1.78576 -2.59747,4.59969 0,2.51631 1.29873,3.95033 1.29874,1.43402 4.57264,2.19162 1.73165,0.3788 4.92438,0.91994 3.19273,0.54114 5.4114,1.10933 4.49147,1.19051 6.76426,3.59859 2.27279,2.40807 2.27279,6.7372 z" />
      </g>
      <g
         transform="matrix(0.4851071,0,0,0.48510711,-30.102184,511.82108)"
         id="g5549">
        <rect
           y="856.90405"
           x="239.05861"
           height="89.587555"
           width="29.862516"
           id="rect5531"
           style="opacity:1;fill:#6dcfff;fill-opacity:1;stroke:none;stroke-width:2;stroke-linejoin:miter;stroke-miterlimit:4;stroke-dasharray:none;stroke-opacity:0.94117647" />
        <rect
           y="796.05261"
           x="-445.65588"
           height="59.725033"
           width="29.862516"
           id="rect5533"
           style="opacity:1;fill:#6dcfff;fill-opacity:1;stroke:none;stroke-width:2;stroke-linejoin:miter;stroke-miterlimit:4;stroke-dasharray:none;stroke-opacity:0.94117647"
           inkscape:transform-center-x="-31.674005"
           inkscape:transform-center-y="10.558001"
           transform="matrix(0.70710678,-0.70710678,0.70710678,0.70710678,0,0)" />
        <rect
           transform="matrix(-0.70710678,-0.70710678,-0.70710678,0.70710678,0,0)"
           inkscape:transform-center-y="10.558033"
           inkscape:transform-center-x="31.673995"
           style="opacity:1;fill:#046c9e;fill-opacity:1;stroke:none;stroke-width:2;stroke-linejoin:miter;stroke-miterlimit:4;stroke-dasharray:none;stroke-opacity:0.94117647"
           id="rect5535"
           width="29.862516"
           height="59.725033"
           x="-855.80359"
           y="385.90497" />
        <path
           inkscape:connector-curvature="0"
           id="path5537"
           d="m 311.11524,856.90405 0,89.58789 8.74805,0 21.11523,-21.11524 0,-68.47265 -29.86328,0 z"
           style="opacity:1;fill:#6dcfff;fill-opacity:1;stroke:none;stroke-width:2;stroke-linejoin:miter;stroke-miterlimit:4;stroke-dasharray:none;stroke-opacity:0.94117647" />
        <path
           inkscape:connector-curvature="0"
           id="path5547"
           d="m 319.86329,946.49194 21.11523,-21.11524 -21.11523,0 0,21.11524 z"
           style="opacity:1;fill:#046c9e;fill-opacity:1;stroke:none;stroke-width:2;stroke-linejoin:miter;stroke-miterlimit:4;stroke-dasharray:none;stroke-opacity:0.94117647" />
      </g>
      <g
         id="text5556"
         style="font-style:normal;font-weight:normal;font-size:40px;line-height:125%;font-family:sans-serif;letter-spacing:9.5px;word-spacing:0px;fill:#818181;fill-opacity:1;stroke:none;stroke-width:1px;stroke-linecap:butt;stroke-linejoin:miter;stroke-opacity:1">
        <path
           id="path4886"
           style="font-size:27.5px;letter-spacing:9.5px;fill:#818181;fill-opacity:1"
           d="m 106.5147,986.36334 -3.90747,14.99876 -2.33642,0 -3.853764,-11.56126 -3.826905,11.56126 -2.322998,0 -3.947754,-14.99876 2.631836,0 2.752686,11.61499 3.746338,-11.61499 2.081299,0 3.840332,11.61499 2.60498,-11.61499 2.53784,0 z" />
        <path
           id="path4888"
           style="font-size:27.5px;letter-spacing:9.5px;fill:#818181;fill-opacity:1"
           d="m 138.51958,986.36334 -3.90747,14.99876 -2.33642,0 -3.85376,-11.56126 -3.82691,11.56126 -2.32299,0 -3.94776,-14.99876 2.63184,0 2.75268,11.61499 3.74634,-11.61499 2.0813,0 3.84033,11.61499 2.60498,-11.61499 2.53784,0 z" />
        <path
           id="path4890"
           style="font-size:27.5px;letter-spacing:9.5px;fill:#818181;fill-opacity:1"
           d="m 170.52447,986.36334 -3.90747,14.99876 -2.33643,0 -3.85376,-11.56126 -3.8269,11.56126 -2.323,0 -3.94776,-14.99876 2.63184,0 2.75269,11.61499 3.74633,-11.61499 2.0813,0 3.84034,11.61499 2.60498,-11.61499 2.53784,0 z" />
        <path
           id="path4892"
           style="font-size:27.5px;letter-spacing:9.5px;fill:#818181;fill-opacity:1"
           d="m 186.87261,1001.3621 -3.20923,0 0,-3.82688 3.20923,0 0,3.82688 z" />
        <path
           id="path4894"
           style="font-size:27.5px;letter-spacing:9.5px;fill:#818181;fill-opacity:1"
           d="m 224.12774,1001.3621 -2.52442,0 0,-8.54002 q 0,-0.96679 -0.094,-1.86645 -0.0806,-0.89966 -0.36255,-1.43677 -0.30884,-0.57739 -0.88623,-0.8728 -0.57739,-0.29541 -1.66504,-0.29541 -1.06079,0 -2.12158,0.53711 -1.06079,0.52368 -2.12158,1.34277 0.0403,0.30884 0.0671,0.7251 0.0268,0.40283 0.0268,0.80566 l 0,9.60081 -2.52441,0 0,-8.54002 q 0,-0.99365 -0.094,-1.87988 -0.0806,-0.89966 -0.36254,-1.43677 -0.30884,-0.57739 -0.88624,-0.85937 -0.57739,-0.29541 -1.66503,-0.29541 -1.03394,0 -2.0813,0.51025 -1.03394,0.51025 -2.06787,1.30249 l 0,11.19871 -2.52442,0 0,-14.99876 2.52442,0 0,1.66504 q 1.18164,-0.98022 2.34985,-1.53076 1.18164,-0.55054 2.51099,-0.55054 1.53076,0 2.59155,0.64453 1.07422,0.64454 1.5979,1.78589 1.53076,-1.28906 2.79297,-1.85302 1.2622,-0.5774 2.69897,-0.5774 2.47071,0 3.63892,1.50391 1.18164,1.49048 1.18164,4.17602 l 0,9.73509 z" />
        <path
           id="path4896"
           style="font-size:27.5px;letter-spacing:9.5px;fill:#818181;fill-opacity:1"
           d="m 251.27178,993.86945 q 0,3.66577 -1.87988,5.78735 -1.87988,2.1216 -5.0354,2.1216 -3.18237,0 -5.06226,-2.1216 -1.86645,-2.12158 -1.86645,-5.78735 0,-3.66578 1.86645,-5.78736 1.87989,-2.13501 5.06226,-2.13501 3.15552,0 5.0354,2.13501 1.87988,2.12158 1.87988,5.78736 z m -2.60498,0 q 0,-2.91382 -1.14136,-4.32373 -1.14135,-1.42334 -3.16894,-1.42334 -2.05444,0 -3.1958,1.42334 -1.12793,1.40991 -1.12793,4.32373 0,2.81982 1.14136,4.28344 1.14135,1.4502 3.18237,1.4502 2.01416,0 3.15552,-1.43677 1.15478,-1.45019 1.15478,-4.29687 z" />
        <path
           id="path4898"
           style="font-size:27.5px;letter-spacing:9.5px;fill:#818181;fill-opacity:1"
           d="m 277.23418,1001.3621 -2.52441,0 0,-8.54002 q 0,-1.03393 -0.12085,-1.93359 -0.12085,-0.91309 -0.44311,-1.42334 -0.3357,-0.56397 -0.9668,-0.83252 -0.63111,-0.28198 -1.63819,-0.28198 -1.03393,0 -2.16186,0.51025 -1.12793,0.51025 -2.16187,1.30249 l 0,11.19871 -2.52441,0 0,-20.89353 2.52441,0 0,7.55981 q 1.18165,-0.98022 2.44385,-1.53076 1.26221,-0.55054 2.59155,-0.55054 2.43042,0 3.70606,1.46363 1.27563,1.46362 1.27563,4.2163 l 0,9.73509 z" />
        <path
           id="path4900"
           style="font-size:27.5px;letter-spacing:9.5px;fill:#818181;fill-opacity:1"
           d="m 303.2503,1001.3621 -2.51099,0 0,-1.59788 q -0.33569,0.22827 -0.91308,0.64458 -0.56397,0.4028 -1.10108,0.6445 -0.6311,0.3088 -1.45019,0.5102 -0.8191,0.2149 -1.92017,0.2149 -2.02759,0 -3.4375,-1.3428 -1.40991,-1.34277 -1.40991,-3.42406 0,-1.70533 0.7251,-2.75269 0.73852,-1.06079 2.09472,-1.66504 1.36963,-0.60425 3.2898,-0.81909 1.92016,-0.21484 4.12231,-0.32227 l 0,-0.3894 q 0,-0.85938 -0.30884,-1.42334 -0.29541,-0.56397 -0.85937,-0.88623 -0.53711,-0.30884 -1.28906,-0.41626 -0.75196,-0.10742 -1.57105,-0.10742 -0.99365,0 -2.21558,0.26855 -1.22192,0.25513 -2.52441,0.75196 l -0.13428,0 0,-2.5647 q 0.73853,-0.20142 2.13501,-0.44312 1.39649,-0.2417 2.75269,-0.2417 1.58447,0 2.75268,0.26856 1.18164,0.25513 2.04102,0.88623 0.84595,0.61767 1.28906,1.5979 0.44312,0.98022 0.44312,2.43042 l 0,10.1782 z m -2.51099,-3.69261 0,-4.17602 q -1.15478,0.0671 -2.72583,0.20142 -1.55762,0.13427 -2.4707,0.3894 -1.08765,0.30884 -1.75904,0.9668 -0.67138,0.64453 -0.67138,1.78589 0,1.28906 0.77881,1.94702 0.77881,0.64453 2.37671,0.64453 1.32934,0 2.43042,-0.51026 1.10107,-0.52368 2.04101,-1.24878 z" />
        <path
           id="path4902"
           style="font-size:27.5px;letter-spacing:9.5px;fill:#818181;fill-opacity:1"
           d="m 325.42608,1001.2278 q -0.71167,0.188 -1.55762,0.3089 -0.83252,0.1208 -1.49048,0.1208 -2.29614,0 -3.49121,-1.2353 -1.19507,-1.23537 -1.19507,-3.9612 l 0,-7.97608 -1.70532,0 0,-2.12158 1.70532,0 0,-4.3103 2.52442,0 0,4.3103 5.20996,0 0,2.12158 -5.20996,0 0,6.83472 q 0,1.18164 0.0537,1.85303 0.0537,0.65796 0.37598,1.23535 0.29541,0.53711 0.80566,0.79224 0.52368,0.2417 1.58447,0.2417 0.61768,0 1.28906,-0.17456 0.67139,-0.18799 0.9668,-0.30884 l 0.13428,0 0,2.26924 z" />
        <path
           id="path4904"
           style="font-size:27.5px;letter-spacing:9.5px;fill:#818181;fill-opacity:1"
           d="m 356.85357,986.36334 -3.90747,14.99876 -2.33643,0 -3.85376,-11.56126 -3.8269,11.56126 -2.323,0 -3.94775,-14.99876 2.63183,0 2.75269,11.61499 3.74634,-11.61499 2.08129,0 3.84034,11.61499 2.60498,-11.61499 2.53784,0 z" />
        <path
           id="path4906"
           style="font-size:27.5px;letter-spacing:9.5px;fill:#818181;fill-opacity:1"
           d="m 382.77569,993.86945 q 0,3.66577 -1.87988,5.78735 -1.87989,2.1216 -5.03541,2.1216 -3.18237,0 -5.06225,-2.1216 -1.86646,-2.12158 -1.86646,-5.78735 0,-3.66578 1.86646,-5.78736 1.87988,-2.13501 5.06225,-2.13501 3.15552,0 5.03541,2.13501 1.87988,2.12158 1.87988,5.78736 z m -2.60498,0 q 0,-2.91382 -1.14136,-4.32373 -1.14136,-1.42334 -3.16895,-1.42334 -2.05444,0 -3.1958,1.42334 -1.12793,1.40991 -1.12793,4.32373 0,2.81982 1.14136,4.28344 1.14136,1.4502 3.18237,1.4502 2.01417,0 3.15552,-1.43677 1.15479,-1.45019 1.15479,-4.29687 z" />
        <path
           id="path4908"
           style="font-size:27.5px;letter-spacing:9.5px;fill:#818181;fill-opacity:1"
           d="m 405.55572,989.11603 -0.13428,0 q -0.56396,-0.13428 -1.10107,-0.18799 -0.52369,-0.0671 -1.24878,-0.0671 -1.16822,0 -2.25586,0.52368 -1.08765,0.51026 -2.09473,1.32935 l 0,10.64817 -2.52441,0 0,-14.99876 2.52441,0 0,2.21558 q 1.50391,-1.2085 2.64526,-1.70532 1.15479,-0.51026 2.34986,-0.51026 0.65796,0 0.95337,0.0403 0.29541,0.0268 0.88623,0.12085 l 0,2.59155 z" />
        <path
           id="path4910"
           style="font-size:27.5px;letter-spacing:9.5px;fill:#818181;fill-opacity:1"
           d="m 431.075,1001.3621 -3.33007,0 -6.01563,-6.56614 -1.63818,1.55762 0,5.00852 -2.52442,0 0,-20.89353 2.52442,0 0,13.40088 7.29126,-7.50611 3.18237,0 -6.96899,6.92871 7.47924,8.07005 z" />
        <path
           id="path4912"
           style="font-size:27.5px;letter-spacing:9.5px;fill:#818181;fill-opacity:1"
           d="m 453.94903,997.03839 q 0,2.05444 -1.70532,3.37041 -1.6919,1.3159 -4.63257,1.3159 -1.66504,0 -3.06153,-0.3894 -1.38305,-0.4029 -2.32299,-0.8728 l 0,-2.83329 0.13427,0 q 1.19507,0.89966 2.65869,1.43677 1.46363,0.52368 2.8064,0.52368 1.66504,0 2.60498,-0.53711 0.93994,-0.53711 0.93994,-1.69189 0,-0.88623 -0.51025,-1.34278 -0.51025,-0.45654 -1.96045,-0.77881 -0.53711,-0.12084 -1.40991,-0.28198 -0.85938,-0.16113 -1.57105,-0.34912 -1.97387,-0.52368 -2.80639,-1.53076 -0.8191,-1.02051 -0.8191,-2.49756 0,-0.92651 0.37598,-1.7456 0.38941,-0.8191 1.16821,-1.46363 0.75196,-0.6311 1.90674,-0.99365 1.16822,-0.37598 2.60498,-0.37598 1.34278,0 2.71241,0.3357 1.38305,0.32226 2.29614,0.79223 l 0,2.69898 -0.13428,0 q -0.9668,-0.71167 -2.34985,-1.19507 -1.38306,-0.49683 -2.71241,-0.49683 -1.38305,0 -2.33642,0.53711 -0.95337,0.52368 -0.95337,1.57105 0,0.92651 0.57739,1.39648 0.56397,0.46997 1.82617,0.76538 0.69825,0.16114 1.55762,0.32227 0.8728,0.16113 1.4502,0.29541 1.75903,0.40283 2.7124,1.38306 0.95337,0.99365 0.95337,2.63183 z" />
        <path
           id="path4914"
           style="font-size:27.5px;letter-spacing:9.5px;fill:#818181;fill-opacity:1"
           d="m 471.19683,1001.3621 -3.20923,0 0,-3.82688 3.20923,0 0,3.82688 z" />
        <path
           id="path4916"
           style="font-size:27.5px;letter-spacing:9.5px;fill:#818181;fill-opacity:1"
           d="m 499.54937,1001.3621 -3.18237,0 -4.2566,-5.76048 -4.28344,5.76048 -2.94068,0 5.8545,-7.47923 -5.80079,-7.51953 3.18238,0 4.22973,5.66651 4.24317,-5.66651 2.9541,0 -5.89478,7.38526 5.89478,7.6135 z" />
        <path
           id="path4918"
           style="font-size:27.5px;letter-spacing:9.5px;fill:#818181;fill-opacity:1"
           d="m 525.31036,986.36334 -8.75489,20.53096 -2.69897,0 2.79297,-6.2573 -5.97534,-14.27366 2.73925,0 4.60572,11.11817 4.64599,-11.11817 2.64527,0 z" />
        <path
           id="path4920"
           style="font-size:27.5px;letter-spacing:9.5px;fill:#818181;fill-opacity:1"
           d="m 548.99004,1001.3621 -12.11181,0 0,-1.86643 8.74145,-11.02417 -8.55346,0 0,-2.10816 11.69555,0 0,1.79932 -8.78174,11.06445 9.01001,0 0,2.13499 z" />
      </g>
    </g>
    <g
       id="g4367">
      <rect
         style="opacity:1;fill:#98d9b6;fill-opacity:1;stroke:none;stroke-width:2;stroke-linejoin:miter;stroke-miterlimit:4;stroke-dasharray:none;stroke-opacity:0.94117647"
         id="rect4316"
         width="29.862516"
         height="89.587555"
         x="185.23936"
         y="779.99744" />
      <rect
         transform="matrix(0.70710678,-0.70710678,0.70710678,0.70710678,0,0)"
         inkscape:transform-center-y="10.558001"
         inkscape:transform-center-x="-31.674005"
         style="opacity:1;fill:#98d9b6;fill-opacity:1;stroke:none;stroke-width:2;stroke-linejoin:miter;stroke-miterlimit:4;stroke-dasharray:none;stroke-opacity:0.94117647"
         id="rect4318"
         width="29.862516"
         height="59.725033"
         x="-429.33063"
         y="703.61548" />
      <rect
         y="369.57971"
         x="-763.36646"
         height="59.725033"
         width="29.862516"
         id="rect4320"
         style="opacity:1;fill:#3ec9a7;fill-opacity:1;stroke:none;stroke-width:2;stroke-linejoin:miter;stroke-miterlimit:4;stroke-dasharray:none;stroke-opacity:0.94117647"
         inkscape:transform-center-x="31.673995"
         inkscape:transform-center-y="10.558033"
         transform="matrix(-0.70710678,-0.70710678,-0.70710678,0.70710678,0,0)" />
      <path
         style="opacity:1;fill:#98d9b6;fill-opacity:1;stroke:none;stroke-width:2;stroke-linejoin:miter;stroke-miterlimit:4;stroke-dasharray:none;stroke-opacity:0.94117647"
         d="m 257.29599,779.99741 0,89.58789 8.74805,0 21.11523,-21.11524 0,-68.47265 -29.86328,0 z"
         id="path4322"
         inkscape:connector-curvature="0" />
      <g
         transform="translate(33,16)"
         style="font-style:normal;font-weight:normal;font-size:52.21489334px;line-height:125%;font-family:sans-serif;letter-spacing:0px;word-spacing:0px;fill:#3ec9a7;fill-opacity:1;stroke:#3ec9a7;stroke-width:3.91611671;stroke-linecap:butt;stroke-linejoin:miter;stroke-miterlimit:4;stroke-dasharray:none;stroke-opacity:1"
         id="g4324">
        <path
           inkscape:connector-curvature="0"
           d="m 305.4808,803.97955 -5.04812,0 0,-32.71079 -10.55516,22.25762 -3.00847,0 -10.47868,-22.25762 0,32.71079 -4.71667,0 0,-37.96288 6.8838,0 10.12173,21.13582 9.79029,-21.13582 7.01128,0 0,37.96288 z"
           style="letter-spacing:4px;fill:#3ec9a7;fill-opacity:1;stroke:#3ec9a7;stroke-width:3.91611671;stroke-opacity:1"
           id="path4326" />
        <path
           inkscape:connector-curvature="0"
           d="m 348.03008,770.37641 q 2.32009,2.54956 3.54388,6.24641 1.24928,3.69686 1.24928,8.38804 0,4.69118 -1.27478,8.41353 -1.24928,3.69686 -3.51838,6.16993 -2.34559,2.57505 -5.55803,3.87532 -3.18695,1.30028 -7.29173,1.30028 -4.0028,0 -7.29173,-1.32577 -3.26343,-1.32577 -5.55803,-3.84983 -2.2946,-2.52406 -3.54388,-6.19542 -1.22379,-3.67136 -1.22379,-8.38804 0,-4.64019 1.22379,-8.31155 1.22378,-3.69685 3.56937,-6.3229 2.24361,-2.49856 5.55803,-3.82433 3.33992,-1.32577 7.26624,-1.32577 4.07929,0 7.31722,1.35127 3.26343,1.32577 5.53254,3.79883 z m -0.45892,14.63445 q 0,-7.39371 -3.31443,-11.39651 -3.31442,-4.0283 -9.05092,-4.0283 -5.78749,0 -9.10191,4.0283 -3.28893,4.0028 -3.28893,11.39651 0,7.4702 3.36542,11.4475 3.36541,3.95182 9.02542,3.95182 5.66002,0 8.99993,-3.95182 3.36542,-3.9773 3.36542,-11.4475 z"
           style="letter-spacing:4px;fill:#3ec9a7;fill-opacity:1;stroke:#3ec9a7;stroke-width:3.91611671;stroke-opacity:1"
           id="path4328" />
        <path
           inkscape:connector-curvature="0"
           d="m 393.86828,803.97955 -5.04812,0 0,-18.58626 -18.94319,0 0,18.58626 -5.04812,0 0,-37.96288 5.04812,0 0,14.88941 18.94319,0 0,-14.88941 5.04812,0 0,37.96288 z"
           style="letter-spacing:4px;fill:#3ec9a7;fill-opacity:1;stroke:#3ec9a7;stroke-width:3.91611671;stroke-opacity:1"
           id="path4330" />
        <path
           inkscape:connector-curvature="0"
           d="m 438.02378,803.97955 -5.37956,0 -3.72235,-10.58065 -16.41914,0 -3.72235,10.58065 -5.12461,0 13.81859,-37.96288 6.73083,0 13.81859,37.96288 z m -10.65714,-14.9149 -6.65434,-18.63725 -6.67984,18.63725 13.33418,0 z"
           style="letter-spacing:4px;fill:#3ec9a7;fill-opacity:1;stroke:#3ec9a7;stroke-width:3.91611671;stroke-opacity:1"
           id="path4332" />
        <path
           inkscape:connector-curvature="0"
           d="m 471.80259,770.50389 -13.56364,0 0,33.47566 -5.04812,0 0,-33.47566 -13.56363,0 0,-4.48722 32.17539,0 0,4.48722 z"
           style="letter-spacing:4px;fill:#3ec9a7;fill-opacity:1;stroke:#3ec9a7;stroke-width:3.91611671;stroke-opacity:1"
           id="path4334" />
      </g>
      <g
         transform="translate(33,16)"
         style="font-style:normal;font-weight:normal;font-size:52.21489334px;line-height:125%;font-family:sans-serif;letter-spacing:0px;word-spacing:0px;fill:#616668;fill-opacity:1;stroke:#616668;stroke-width:1;stroke-linecap:butt;stroke-linejoin:miter;stroke-miterlimit:4;stroke-dasharray:none;stroke-opacity:1"
         id="g4336">
        <path
           inkscape:connector-curvature="0"
           d="m 320.9,812.87373 -9.86678,37.96288 -5.68551,0 -7.98011,-31.51251 -7.80163,31.51251 -5.55804,0 -10.04524,-37.96288 5.17559,0 7.98011,31.56349 7.85263,-31.56349 5.12461,0 7.92912,31.86944 7.92911,-31.86944 4.94614,0 z"
           style="letter-spacing:0px;fill:#616668;fill-opacity:1;stroke:#616668;stroke-width:1;stroke-miterlimit:4;stroke-dasharray:none;stroke-opacity:1"
           id="path4338" />
        <path
           inkscape:connector-curvature="0"
           d="m 356.61927,817.23347 q 2.3201,2.54955 3.54388,6.24641 1.24929,3.69686 1.24929,8.38804 0,4.69118 -1.27478,8.41353 -1.24928,3.69686 -3.51839,6.16992 -2.34559,2.57505 -5.55803,3.87533 -3.18694,1.30027 -7.29173,1.30027 -4.0028,0 -7.29173,-1.32577 -3.26343,-1.32577 -5.55803,-3.84983 -2.2946,-2.52406 -3.54388,-6.19542 -1.22378,-3.67136 -1.22378,-8.38803 0,-4.64019 1.22378,-8.31155 1.22379,-3.69686 3.56938,-6.3229 2.24361,-2.49856 5.55803,-3.82433 3.33992,-1.32577 7.26623,-1.32577 4.07929,0 7.31723,1.35126 3.26343,1.32577 5.53253,3.79884 z m -0.45892,14.63445 q 0,-7.39371 -3.31442,-11.39652 -3.31442,-4.02829 -9.05092,-4.02829 -5.78749,0 -9.10191,4.02829 -3.28893,4.00281 -3.28893,11.39652 0,7.47019 3.36541,11.4475 3.36542,3.95181 9.02543,3.95181 5.66001,0 8.99993,-3.95181 3.36541,-3.97731 3.36541,-11.4475 z"
           style="letter-spacing:0px;fill:#616668;fill-opacity:1;stroke:#616668;stroke-width:1;stroke-miterlimit:4;stroke-dasharray:none;stroke-opacity:1"
           id="path4340" />
        <path
           inkscape:connector-curvature="0"
           d="m 400.82856,850.83661 -6.55236,0 -12.69679,-15.09337 -7.11326,0 0,15.09337 -5.04812,0 0,-37.96288 10.63165,0 q 3.4419,0 5.7365,0.45892 2.2946,0.43342 4.13028,1.58072 2.06514,1.30028 3.21244,3.28893 1.17279,1.96316 1.17279,4.99713 0,4.10478 -2.06514,6.8838 -2.06513,2.75352 -5.6855,4.15577 l 14.27751,16.59761 z m -11.80444,-27.28024 q 0,-1.63172 -0.5864,-2.881 -0.5609,-1.27478 -1.88667,-2.14163 -1.09631,-0.73937 -2.60055,-1.01982 -1.50424,-0.30595 -3.54388,-0.30595 l -5.94047,0 0,14.3285 5.09911,0 q 2.39659,0 4.18128,-0.40792 1.78468,-0.43343 3.03397,-1.58073 1.1473,-1.07081 1.6827,-2.44757 0.56091,-1.40226 0.56091,-3.54388 z"
           style="letter-spacing:0px;fill:#616668;fill-opacity:1;stroke:#616668;stroke-width:1;stroke-miterlimit:4;stroke-dasharray:none;stroke-opacity:1"
           id="path4342" />
        <path
           inkscape:connector-curvature="0"
           d="m 436.24189,850.83661 -6.55236,0 -15.01688,-16.90355 -3.77334,4.02829 0,12.87526 -5.04812,0 0,-37.96288 5.04812,0 0,19.81004 18.43329,-19.81004 6.11893,0 -16.95454,17.84689 17.7449,20.11599 z"
           style="letter-spacing:0px;fill:#616668;fill-opacity:1;stroke:#616668;stroke-width:1;stroke-miterlimit:4;stroke-dasharray:none;stroke-opacity:1"
           id="path4344" />
        <path
           inkscape:connector-curvature="0"
           d="m 469.51358,840.001 q 0,2.21811 -1.04532,4.38523 -1.01982,2.16713 -2.881,3.67136 -2.03964,1.63172 -4.76767,2.54956 -2.70253,0.91784 -6.52686,0.91784 -4.10478,0 -7.39371,-0.76487 -3.26343,-0.76486 -6.65434,-2.2691 l 0,-6.3229 0.35694,0 q 2.881,2.39658 6.65434,3.69686 3.77334,1.30027 7.08776,1.30027 4.69118,0 7.29173,-1.75919 2.62604,-1.7592 2.62604,-4.69119 0,-2.52406 -1.24928,-3.72235 -1.22379,-1.19829 -3.74785,-1.86117 -1.91216,-0.50991 -4.15577,-0.84136 -2.21811,-0.33144 -4.71668,-0.84135 -5.04812,-1.07081 -7.49569,-3.64586 -2.42208,-2.60055 -2.42208,-6.75632 0,-4.76767 4.0283,-7.80164 4.0283,-3.05947 10.22372,-3.05947 4.0028,0 7.34272,0.76487 3.33991,0.76486 5.91496,1.88667 l 0,5.96596 -0.35693,0 q -2.16713,-1.83568 -5.71101,-3.03397 -3.51838,-1.22379 -7.21524,-1.22379 -4.05379,0 -6.52686,1.68271 -2.44757,1.6827 -2.44757,4.33424 0,2.37109 1.22378,3.72235 1.22379,1.35127 4.30875,2.06514 1.63172,0.35694 4.64019,0.86685 3.00848,0.50991 5.09911,1.04532 4.23226,1.1218 6.37389,3.39091 2.14163,2.2691 2.14163,6.34839 z"
           style="letter-spacing:0px;fill:#616668;fill-opacity:1;stroke:#616668;stroke-width:1;stroke-miterlimit:4;stroke-dasharray:none;stroke-opacity:1"
           id="path4346" />
      </g>
      <path
         style="opacity:1;fill:#3ec9a7;fill-opacity:1;stroke:none;stroke-width:2;stroke-linejoin:miter;stroke-miterlimit:4;stroke-dasharray:none;stroke-opacity:0.94117647"
         d="m 266.04404,869.5853 21.11523,-21.11524 -21.11523,0 0,21.11524 z"
         id="path4348"
         inkscape:connector-curvature="0" />
    </g>
  </g>
</svg>
